<svg width="35" height="32" viewBox="0 0 35 32" fill="none" xmlns="http://www.w3.org/2000/svg">
    <path d="M35 0H0V32H35V0Z" fill="#EAEAEA"/>
    <path d="M10.54 20H16.1801V18.728H12.4301L14.3101 17.012C15.6001 15.836 16.1801 15.008 16.1801 14.06C16.1801 12.548 15.13 11.492 13.36 11.492C11.61 11.492 10.54 12.548 10.54 14.18H12.0601C12.0601 13.328 12.55 12.836 13.36 12.836C14.18 12.836 14.67 13.328 14.67 14.06C14.67 14.624 14.32 15.104 13.26 16.124L10.54 18.728V20ZM20.8 16.88H22.96C22.82 18.236 22.13 18.764 20.92 18.764C19.65 18.764 18.77 17.9 18.77 16.124V15.476C18.77 13.652 19.54 12.836 20.92 12.836C21.9 12.836 22.48 13.412 22.72 14.18H24.28C24.04 12.692 22.84 11.492 20.92 11.492C18.62 11.492 17.26 12.908 17.26 15.476V16.124C17.26 18.704 18.66 20.108 20.92 20.108C23.04 20.108 24.34 18.812 24.34 16.28V15.656H20.8V16.88Z" fill="white"/>
</svg>
