<svg width="36" height="32" viewBox="0 0 36 32" fill="none" xmlns="http://www.w3.org/2000/svg">
    <path d="M36 0H0V32H36V0Z" fill="#1D1D1D"/>
    <path d="M13.86 20.108C15.84 20.108 16.86 19.088 16.86 17.612C16.86 16.784 16.47 16.064 15.65 15.668C16.35 15.284 16.6801 14.636 16.6801 13.868C16.6801 12.464 15.71 11.492 13.86 11.492C12.11 11.492 11.08 12.512 11.04 14.18H12.55C12.63 13.292 13.08 12.836 13.86 12.836C14.71 12.836 15.17 13.292 15.17 13.964C15.17 14.6 14.71 15.044 13.95 15.044H12.84V16.316H13.95C14.87 16.316 15.35 16.82 15.35 17.504C15.35 18.272 14.85 18.764 13.86 18.764C12.91 18.764 12.41 18.272 12.37 17.18H10.86C10.9 19.04 11.98 20.108 13.86 20.108ZM21.48 16.88H23.64C23.5 18.236 22.81 18.764 21.6 18.764C20.33 18.764 19.45 17.9 19.45 16.124V15.476C19.45 13.652 20.22 12.836 21.6 12.836C22.59 12.836 23.16 13.412 23.4 14.18H24.96C24.72 12.692 23.52 11.492 21.6 11.492C19.3 11.492 17.9399 12.908 17.9399 15.476V16.124C17.9399 18.704 19.35 20.108 21.6 20.108C23.73 20.108 25.02 18.812 25.02 16.28V15.656H21.48V16.88Z" fill="white"/>
</svg>
