<svg width="35" height="32" viewBox="0 0 35 32" fill="none" xmlns="http://www.w3.org/2000/svg">
    <path d="M35 0H0V32H35V0Z" fill="#EAEAEA"/>
    <path d="M10.6899 16.292H12.08C12.33 15.908 12.83 15.62 13.45 15.62C14.36 15.62 14.9399 16.196 14.9399 17.192C14.9399 18.188 14.36 18.764 13.45 18.764C12.75 18.764 12.2 18.452 11.96 17.864H10.45C10.73 19.292 11.91 20.108 13.45 20.108C15.32 20.108 16.45 18.956 16.45 17.192C16.45 15.416 15.3199 14.276 13.6899 14.276C13.0999 14.276 12.5899 14.444 12.1899 14.744L12.33 12.872H15.91V11.6H11.05L10.6899 16.292ZM20.89 16.88H23.05C22.91 18.236 22.23 18.764 21.01 18.764C19.74 18.764 18.87 17.9 18.87 16.124V15.476C18.87 13.652 19.63 12.836 21.01 12.836C22 12.836 22.5701 13.412 22.8101 14.18H24.37C24.13 12.692 22.93 11.492 21.01 11.492C18.71 11.492 17.35 12.908 17.35 15.476V16.124C17.35 18.704 18.76 20.108 21.01 20.108C23.14 20.108 24.4301 18.812 24.4301 16.28V15.656H20.89V16.88Z" fill="white"/>
</svg>
