<svg width="112" height="198" viewBox="0 0 112 198" fill="none" xmlns="http://www.w3.org/2000/svg">
    <path opacity="0.2" d="M82 46V61M30 19L56 57L30 19ZM30 19V1V19ZM30 19H56H30ZM30 19L82 46L30 19ZM30 19V46V19ZM82 19L56 57L82 19ZM82 19V1V19ZM82 19H56H82ZM82 19L30 46L82 19ZM82 19V46V19ZM56 57L82 46L56 57ZM56 57L30 46L56 57ZM56 57V61V57ZM56 57V19V57ZM56 19V1V19ZM30 46H82H30ZM30 46V61V46Z" stroke="#1D1D1D" stroke-linecap="round" stroke-linejoin="round" stroke-dasharray="2 5"/>
    <path opacity="0.2" d="M56 166.67V125.57M56 42L42.25 79.0701L56 42ZM56 42L69.75 79.0701L56 42ZM56 42V125.57V42ZM56 197V166.67V197ZM111 190.26L97.25 153.2L111 190.26ZM1 190.26L14.75 153.2L1 190.26ZM83.5 116.13L69.75 79.0701L83.5 116.13ZM83.5 116.13L97.25 153.2L83.5 116.13ZM83.5 116.13L56 125.57L83.5 116.13ZM28.5 116.13L42.25 79.0701L28.5 116.13ZM28.5 116.13L14.75 153.2L28.5 116.13ZM28.5 116.13L56 125.57L28.5 116.13ZM42.25 79.0701L56 84.46L69.75 79.0701H42.25ZM14.75 153.2L56 166.67L14.75 153.2ZM97.25 153.2L56 166.67L97.25 153.2Z" stroke="#1D1D1D" stroke-linecap="round" stroke-linejoin="round" stroke-dasharray="2 5"/>
</svg>
