<svg width="202" height="7" viewBox="0 0 202 7" fill="none" xmlns="http://www.w3.org/2000/svg">
    <path d="M1 1H201" stroke="#2C2C2C" stroke-width="1.2" stroke-linecap="round" stroke-linejoin="round"/>
    <path d="M1 1V2C1 4.209 2.79 6 5 6C7.21 6 9 4.209 9 2V1" stroke="#2C2C2C" stroke-width="1.2" stroke-linecap="round" stroke-linejoin="round"/>
    <path d="M9 1V2C9 4.209 10.79 6 13 6C15.21 6 17 4.209 17 2V1" stroke="#2C2C2C" stroke-width="1.2" stroke-linecap="round" stroke-linejoin="round"/>
    <path d="M17 1V2C17 4.209 18.79 6 21 6C23.21 6 25 4.209 25 2V1" stroke="#2C2C2C" stroke-width="1.2" stroke-linecap="round" stroke-linejoin="round"/>
    <path d="M25 1V2C25 4.209 26.79 6 29 6C31.21 6 33 4.209 33 2V1" stroke="#2C2C2C" stroke-width="1.2" stroke-linecap="round" stroke-linejoin="round"/>
    <path d="M33 1V2C33 4.209 34.79 6 37 6C39.21 6 41 4.209 41 2V1" stroke="#2C2C2C" stroke-width="1.2" stroke-linecap="round" stroke-linejoin="round"/>
    <path d="M41 1V2C41 4.209 42.79 6 45 6C47.21 6 49 4.209 49 2V1" stroke="#2C2C2C" stroke-width="1.2" stroke-linecap="round" stroke-linejoin="round"/>
    <path d="M49 1V2C49 4.209 50.79 6 53 6C55.21 6 57 4.209 57 2V1" stroke="#2C2C2C" stroke-width="1.2" stroke-linecap="round" stroke-linejoin="round"/>
    <path d="M57 1V2C57 4.209 58.79 6 61 6C63.21 6 65 4.209 65 2V1" stroke="#2C2C2C" stroke-width="1.2" stroke-linecap="round" stroke-linejoin="round"/>
    <path d="M65 1V2C65 4.209 66.79 6 69 6C71.21 6 73 4.209 73 2V1" stroke="#2C2C2C" stroke-width="1.2" stroke-linecap="round" stroke-linejoin="round"/>
    <path d="M73 1V2C73 4.209 74.79 6 77 6C79.21 6 81 4.209 81 2V1" stroke="#2C2C2C" stroke-width="1.2" stroke-linecap="round" stroke-linejoin="round"/>
    <path d="M81 1V2C81 4.209 82.79 6 85 6C87.21 6 89 4.209 89 2V1" stroke="#2C2C2C" stroke-width="1.2" stroke-linecap="round" stroke-linejoin="round"/>
    <path d="M89 1V2C89 4.209 90.79 6 93 6C95.21 6 97 4.209 97 2V1" stroke="#2C2C2C" stroke-width="1.2" stroke-linecap="round" stroke-linejoin="round"/>
    <path d="M97 1V2C97 4.209 98.79 6 101 6C103.21 6 105 4.209 105 2V1" stroke="#2C2C2C" stroke-width="1.2" stroke-linecap="round" stroke-linejoin="round"/>
    <path d="M105 1V2C105 4.209 106.79 6 109 6C111.21 6 113 4.209 113 2V1" stroke="#2C2C2C" stroke-width="1.2" stroke-linecap="round" stroke-linejoin="round"/>
    <path d="M113 1V2C113 4.209 114.79 6 117 6C119.21 6 121 4.209 121 2V1" stroke="#2C2C2C" stroke-width="1.2" stroke-linecap="round" stroke-linejoin="round"/>
    <path d="M121 1V2C121 4.209 122.79 6 125 6C127.21 6 129 4.209 129 2V1" stroke="#2C2C2C" stroke-width="1.2" stroke-linecap="round" stroke-linejoin="round"/>
    <path d="M129 1V2C129 4.209 130.79 6 133 6C135.21 6 137 4.209 137 2V1" stroke="#2C2C2C" stroke-width="1.2" stroke-linecap="round" stroke-linejoin="round"/>
    <path d="M137 1V2C137 4.209 138.79 6 141 6C143.21 6 145 4.209 145 2V1" stroke="#2C2C2C" stroke-width="1.2" stroke-linecap="round" stroke-linejoin="round"/>
    <path d="M145 1V2C145 4.209 146.79 6 149 6C151.21 6 153 4.209 153 2V1" stroke="#2C2C2C" stroke-width="1.2" stroke-linecap="round" stroke-linejoin="round"/>
    <path d="M153 1V2C153 4.209 154.79 6 157 6C159.21 6 161 4.209 161 2V1" stroke="#2C2C2C" stroke-width="1.2" stroke-linecap="round" stroke-linejoin="round"/>
    <path d="M161 1V2C161 4.209 162.79 6 165 6C167.21 6 169 4.209 169 2V1" stroke="#2C2C2C" stroke-width="1.2" stroke-linecap="round" stroke-linejoin="round"/>
    <path d="M169 1V2C169 4.209 170.79 6 173 6C175.21 6 177 4.209 177 2V1" stroke="#2C2C2C" stroke-width="1.2" stroke-linecap="round" stroke-linejoin="round"/>
    <path d="M177 1V2C177 4.209 178.79 6 181 6C183.21 6 185 4.209 185 2V1" stroke="#2C2C2C" stroke-width="1.2" stroke-linecap="round" stroke-linejoin="round"/>
    <path d="M185 1V2C185 4.209 186.79 6 189 6C191.21 6 193 4.209 193 2V1" stroke="#2C2C2C" stroke-width="1.2" stroke-linecap="round" stroke-linejoin="round"/>
    <path d="M193 1V2C193 4.209 194.79 6 197 6C199.21 6 201 4.209 201 2V1" stroke="#2C2C2C" stroke-width="1.2" stroke-linecap="round" stroke-linejoin="round"/>
</svg>
