<svg width="112" height="210" viewBox="0 0 112 210" fill="none" xmlns="http://www.w3.org/2000/svg">
    <path d="M56 178.67V137.57M56 54L42.25 91.0699L56 54ZM56 54L69.75 91.0699L56 54ZM56 54V137.57V54ZM56 209V178.67V209ZM111 202.26L97.25 165.2L111 202.26ZM1 202.26L14.75 165.2L1 202.26ZM83.5 128.13L69.75 91.0699L83.5 128.13ZM83.5 128.13L97.25 165.2L83.5 128.13ZM83.5 128.13L56 137.57L83.5 128.13ZM28.5 128.13L42.25 91.0699L28.5 128.13ZM28.5 128.13L14.75 165.2L28.5 128.13ZM28.5 128.13L56 137.57L28.5 128.13ZM42.25 91.0699L56 96.46L69.75 91.0699H42.25ZM14.75 165.2L56 178.67L14.75 165.2ZM97.25 165.2L56 178.67L97.25 165.2Z" stroke="#2C2C2C" stroke-width="1.2" stroke-linecap="round" stroke-linejoin="round"/>
    <path d="M82 46V61M30 19L56 57L30 19ZM30 19V1V19ZM30 19H56H30ZM30 19L82 46L30 19ZM30 19V46V19ZM82 19L56 57L82 19ZM82 19V1V19ZM82 19H56H82ZM82 19L30 46L82 19ZM82 19V46V19ZM56 57L82 46L56 57ZM56 57L30 46L56 57ZM56 57V61V57ZM56 57V19V57ZM56 19V1V19ZM30 46H82H30ZM30 46V61V46Z" stroke="#1D1D1D" stroke-linecap="round" stroke-linejoin="round"/>
</svg>
