<svg width="54" height="198" viewBox="0 0 54 198" fill="none" xmlns="http://www.w3.org/2000/svg">
    <path d="M27 45.9199V170M24 43.96V168.04L27 170L24 43.96ZM24 43.96L27 45.9199L24 43.96ZM24 43.96L27 42L30 43.96H24ZM30 43.96V168.04L27 170L30 43.96ZM30 43.96L27 45.9199L30 43.96Z" stroke="#2C2C2C" stroke-width="1.2" stroke-linecap="round" stroke-linejoin="round"/>
    <path d="M21 168.62C21 167.53 22.059 166.57 23.667 166M33 168.62C33 170.36 30.314 171.78 27 171.78C23.686 171.78 21 170.36 21 168.62H33ZM33 168.62V193.85C33 195.59 30.314 197 27 197C23.686 197 21 195.59 21 193.85V168.62H33ZM33 168.62C33 167.53 31.941 166.57 30.333 166L33 168.62Z" stroke="#2C2C2C" stroke-width="1.2" stroke-linecap="round" stroke-linejoin="round"/>
    <path d="M53 46V61M1 19L27 57L1 19ZM1 19V1V19ZM1 19H27H1ZM1 19L53 46L1 19ZM1 19V46V19ZM53 19L27 57L53 19ZM53 19V1V19ZM53 19H27H53ZM53 19L1 46L53 19ZM53 19V46V19ZM27 57L53 46L27 57ZM27 57L1 46L27 57ZM27 57V61V57ZM27 57V19V57ZM27 19V1V19ZM1 46H53H1ZM1 46V61V46Z" stroke="#1D1D1D" stroke-linecap="round" stroke-linejoin="round"/>
</svg>
